<svg width="50" height="50" viewBox="0 0 50 50" fill="none" xmlns="http://www.w3.org/2000/svg">
<g clip-path="url(#clip0_2_130)">
<path d="M45.6055 0.0976562H4.39453C1.97139 0.0976562 0 2.06904 0 4.49219V45.5078C0 47.931 1.97139 49.9023 4.39453 49.9023H45.6055C48.0286 49.9023 50 47.931 50 45.5078V4.49219C50 2.06904 48.0286 0.0976562 45.6055 0.0976562ZM4.39453 3.02734H45.6055C46.4132 3.02734 47.0703 3.68447 47.0703 4.49219V11.8164H2.92969V4.49219C2.92969 3.68447 3.58682 3.02734 4.39453 3.02734ZM45.6055 46.9727H4.39453C3.58682 46.9727 2.92969 46.3155 2.92969 45.5078V14.7461H47.0703V45.5078C47.0703 46.3155 46.4132 46.9727 45.6055 46.9727Z" fill="white"/>
<path d="M29.9716 19.2591C29.2281 18.9404 28.3669 19.2848 28.0482 20.0284L19.2591 40.5362C18.9404 41.2798 19.2849 42.141 20.0285 42.4596C20.7723 42.7784 21.6334 42.4337 21.9519 41.6903L30.741 21.1825C31.0597 20.4388 30.7152 19.5777 29.9716 19.2591Z" fill="white"/>
<path d="M17.3547 24.0848C16.8492 23.4531 15.9272 23.3507 15.2958 23.8561L7.97156 29.7155C7.23924 30.3011 7.23875 31.417 7.97156 32.0032L15.2958 37.8625C15.9275 38.368 16.8495 38.2655 17.3547 37.6338C17.86 37.0021 17.7577 36.0802 17.1259 35.5749L11.2315 30.8593L17.1259 26.1438C17.7577 25.6384 17.86 24.7166 17.3547 24.0848Z" fill="white"/>
<path d="M42.0286 29.7155L34.7043 23.8561C34.0726 23.3507 33.1507 23.4531 32.6455 24.0849C32.1401 24.7166 32.2424 25.6385 32.8743 26.1437L38.7686 30.8594L32.8743 35.5749C32.2424 36.0803 32.1401 37.002 32.6455 37.6338C33.1515 38.2662 34.0735 38.3674 34.7043 37.8625L42.0286 32.0031C42.7609 31.4175 42.7614 30.3016 42.0286 29.7155Z" fill="white"/>
<path d="M7.42188 8.88672C8.23089 8.88672 8.88672 8.23089 8.88672 7.42188C8.88672 6.61286 8.23089 5.95703 7.42188 5.95703C6.61286 5.95703 5.95703 6.61286 5.95703 7.42188C5.95703 8.23089 6.61286 8.88672 7.42188 8.88672Z" fill="white"/>
<path d="M13.2812 8.88672C14.0903 8.88672 14.7461 8.23089 14.7461 7.42188C14.7461 6.61286 14.0903 5.95703 13.2812 5.95703C12.4722 5.95703 11.8164 6.61286 11.8164 7.42188C11.8164 8.23089 12.4722 8.88672 13.2812 8.88672Z" fill="white"/>
<path d="M19.1406 8.88672C19.9496 8.88672 20.6055 8.23089 20.6055 7.42188C20.6055 6.61286 19.9496 5.95703 19.1406 5.95703C18.3316 5.95703 17.6758 6.61286 17.6758 7.42188C17.6758 8.23089 18.3316 8.88672 19.1406 8.88672Z" fill="white"/>
<path d="M33.7891 8.88672H42.5781C43.3871 8.88672 44.043 8.23086 44.043 7.42188C44.043 6.61289 43.3871 5.95703 42.5781 5.95703H33.7891C32.9801 5.95703 32.3242 6.61289 32.3242 7.42188C32.3242 8.23086 32.9801 8.88672 33.7891 8.88672Z" fill="white"/>
</g>
<defs>
<clipPath id="clip0_2_130">
<rect width="50" height="50" fill="white"/>
</clipPath>
</defs>
</svg>
