<svg width="46" height="46" viewBox="0 0 46 46" fill="none" xmlns="http://www.w3.org/2000/svg">
<g clip-path="url(#clip0_2_149)">
<path d="M18.0657 3.58044C20.1043 3.58058 21.7619 5.23808 21.762 7.27673V18.0658C21.7619 20.1043 20.1042 21.762 18.0657 21.7621H7.27667C5.23802 21.7621 3.58052 20.1043 3.58038 18.0658V7.27673C3.58038 5.238 5.23794 3.58044 7.27667 3.58044H18.0657ZM7.27667 5.57849C6.34065 5.57849 5.57843 6.34071 5.57843 7.27673V18.0658C5.57856 19.0017 6.34073 19.764 7.27667 19.764H18.0657C19.0016 19.7639 19.7638 19.0016 19.764 18.0658V7.27673C19.764 6.3408 19.0016 5.57863 18.0657 5.57849H7.27667Z" fill="#3D3D3F" stroke="#3D3D3F" stroke-width="0.2"/>
<path d="M39.2257 3.58044C41.2643 3.58058 42.9219 5.23809 42.922 7.27673V18.0658C42.9219 20.1043 41.2642 21.7619 39.2257 21.7621H28.4367C26.398 21.7621 24.7405 20.1043 24.7404 18.0658V7.27673C24.7404 5.238 26.3979 3.58044 28.4367 3.58044H39.2257ZM28.4367 5.57849C27.5007 5.57849 26.7384 6.34071 26.7384 7.27673V18.0658C26.7386 19.0017 27.5007 19.764 28.4367 19.764H39.2257C40.1616 19.7639 40.9238 19.0016 40.924 18.0658V7.27673C40.924 6.3408 40.1616 5.57863 39.2257 5.57849H28.4367Z" fill="#3D3D3F" stroke="#3D3D3F" stroke-width="0.2"/>
<path d="M18.0657 25.1587C20.1043 25.1588 21.7619 26.8163 21.762 28.855V39.644C21.7619 41.6826 20.1042 43.3402 18.0657 43.3403H7.27667C5.23802 43.3403 3.58052 41.6826 3.58038 39.644V28.855C3.58038 26.8162 5.23794 25.1587 7.27667 25.1587H18.0657ZM7.27667 27.1567C6.34065 27.1567 5.57843 27.919 5.57843 28.855V39.644C5.57857 40.5799 6.34074 41.3423 7.27667 41.3423H18.0657C19.0016 41.3422 19.7638 40.5799 19.764 39.644V28.855C19.764 27.919 19.0016 27.1569 18.0657 27.1567H7.27667Z" fill="#3D3D3F" stroke="#3D3D3F" stroke-width="0.2"/>
<path d="M39.2257 25.1587C41.2643 25.1588 42.9219 26.8163 42.922 28.855V39.644C42.9219 41.6826 41.2642 43.3402 39.2257 43.3403H28.4367C26.398 43.3403 24.7405 41.6826 24.7404 39.644V28.855C24.7404 26.8162 26.3979 25.1587 28.4367 25.1587H39.2257ZM28.4367 27.1567C27.5007 27.1567 26.7384 27.919 26.7384 28.855V39.644C26.7386 40.5799 27.5007 41.3423 28.4367 41.3423H39.2257C40.1616 41.3422 40.9238 40.5799 40.924 39.644V28.855C40.924 27.919 40.1616 27.1569 39.2257 27.1567H28.4367Z" fill="#3D3D3F" stroke="#3D3D3F" stroke-width="0.2"/>
</g>
<defs>
<clipPath id="clip0_2_149">
<rect x="3.67999" y="3.68005" width="39.56" height="39.56" rx="3" fill="white"/>
</clipPath>
</defs>
</svg>
