<svg width="31" height="31" viewBox="0 0 31 31" fill="none" xmlns="http://www.w3.org/2000/svg">
<circle cx="15.4667" cy="15.4667" r="15.4667" fill="#0077B5"/>
<path fill-rule="evenodd" clip-rule="evenodd" d="M11.8861 8.55361C11.8861 9.42444 11.223 10.1292 10.1861 10.1292C9.18957 10.1292 8.52651 9.42444 8.54703 8.55361C8.52651 7.64046 9.18956 6.95624 10.206 6.95624C11.223 6.95624 11.8662 7.64046 11.8861 8.55361ZM8.6304 21.5173V11.3739H11.7828V21.5166H8.6304V21.5173Z" fill="white"/>
<path fill-rule="evenodd" clip-rule="evenodd" d="M14.3096 14.611C14.3096 13.3458 14.2679 12.2672 14.2262 11.3752H16.9644L17.1099 12.7648H17.1721C17.587 12.1217 18.624 11.1476 20.3041 11.1476C22.3779 11.1476 23.9336 12.5167 23.9336 15.5024V21.5186H20.7811V15.8974C20.7811 14.5899 20.3252 13.6985 19.1844 13.6985C18.3129 13.6985 17.7948 14.3 17.5877 14.8803C17.5043 15.0881 17.4633 15.378 17.4633 15.6691V21.5186H14.3108V14.611H14.3096Z" fill="white"/>
</svg>
