<svg width="50" height="50" viewBox="0 0 50 50" fill="none" xmlns="http://www.w3.org/2000/svg">
<g clip-path="url(#clip0_2_116)">
<path d="M43.6691 6.50219H43.0759C44.2067 4.66111 43.7891 2.18938 41.9742 0.842824C40.0187 -0.607928 37.2397 -0.140945 35.875 1.89847L32.7944 6.50228H6.33038C4.15513 6.50228 2.38544 8.27198 2.38544 10.4472V35.6688C2.38544 37.8441 4.15513 39.6137 6.33038 39.6137H21.6537L20.4959 44.4766H17.997C16.3685 44.4766 15.0435 45.8015 15.0435 47.4301V48.0468H11.963C11.4236 48.0468 10.9864 48.4841 10.9864 49.0233C10.9864 49.5626 11.4236 49.9999 11.963 49.9999H38.0366C38.5759 49.9999 39.0131 49.5626 39.0131 49.0233C39.0131 48.4841 38.5759 48.0468 38.0366 48.0468H34.9561V47.4301C34.9561 45.8015 33.6311 44.4766 32.0025 44.4766H29.5037L28.3459 39.6137H43.6692C45.8445 39.6137 47.6141 37.8441 47.6141 35.6688V30.1191V10.4471C47.6141 8.27188 45.8445 6.50219 43.6691 6.50219ZM29.677 23.6697C28.1502 24.7385 25.2898 23.2857 22.5582 24.7433C21.8917 21.281 22.3119 18.0247 25.7811 17.306C26.2294 17.2125 26.7121 17.1702 27.123 17.1784C28.2972 18.0496 29.4849 18.9307 30.6558 19.7996C31.1684 21.2906 30.976 22.7605 29.677 23.6697ZM30.6612 13.2023L33.4255 15.2533L31.2996 17.8451C30.4244 17.1958 29.6721 16.6376 28.7969 15.9882C28.9787 15.7167 30.495 13.4505 30.6612 13.2023ZM37.4983 2.98468C38.238 1.87913 39.7464 1.62191 40.8105 2.41145C41.8749 3.20108 42.0655 4.71921 41.2221 5.74761C39.7255 7.57209 36.1676 11.91 34.6654 13.7415L31.7484 11.5773L37.4983 2.98468ZM33.0029 47.4301V48.0468H16.9966V47.4301C16.9966 46.8785 17.4454 46.4297 17.997 46.4297H32.0024C32.5541 46.4297 33.0029 46.8785 33.0029 47.4301ZM27.4959 44.4766H22.5036L23.6614 39.6137H26.3381L27.4959 44.4766ZM45.6611 35.6688C45.6611 36.7671 44.7675 37.6607 43.6692 37.6607C42.119 37.6607 8.07341 37.6607 6.33048 37.6607C5.23216 37.6607 4.33862 36.7671 4.33862 35.6688V31.0956H7.12919C7.66854 31.0956 8.10574 30.6583 8.10574 30.1191C8.10574 29.5799 7.66854 29.1426 7.12919 29.1426H4.33843V10.4471C4.33843 9.34881 5.23196 8.45527 6.33028 8.45527H31.4875C30.552 9.85339 27.8226 13.9322 26.9581 15.2241C25.0444 15.2414 23.1338 15.9081 21.883 17.3682C20.181 19.355 19.882 22.4768 20.9943 26.6468C21.1844 27.3599 22.0741 27.6153 22.6125 27.1011C25.1375 24.6884 28.2824 27.3201 31.0986 25.0407C32.8178 23.6491 33.2246 21.4369 32.5764 19.3681C33.4526 18.2998 40.6489 9.52615 41.5272 8.45527H43.669C44.7673 8.45527 45.6609 9.34881 45.6609 10.4471V29.1425H14.9413C14.402 29.1425 13.9648 29.5798 13.9648 30.119C13.9648 30.6583 14.402 31.0955 14.9413 31.0955H45.6611V35.6688Z" fill="#3D3D3F"/>
<path d="M10.8463 29.1614C10.3761 29.2575 10.0611 29.6639 10.0611 30.1196C10.0611 30.7304 10.6196 31.1982 11.2281 31.0766C11.7688 30.9668 12.0982 30.4457 11.9947 29.9281C11.886 29.394 11.3678 29.0565 10.8463 29.1614Z" fill="#3D3D3F"/>
</g>
<defs>
<clipPath id="clip0_2_116">
<rect width="50" height="50" fill="white"/>
</clipPath>
</defs>
</svg>
